<svg xmlns="http://www.w3.org/2000/svg" width="1357.975" height="1059.017" viewBox="0 0 1357.975 1059.017"><defs><style>.a,.b,.c,.d,.e,.f{fill:none;stroke:#fff;}.b{opacity:0.8;}.c{opacity:0.7;}.d{opacity:0.6;}.e{opacity:0.5;}.f{opacity:0.4;}</style></defs><g transform="translate(-1072.83 -1684.231)"><g transform="translate(-145.696 -186.269)"><path class="a" d="M1301.856,901.787H986.568L758.037,580.15,527.389,901.787H212.1L599.334,362.2,229.029-156.23H544.318L758.037,142.132,971.756-156.23h313.171l-370.3,516.313Z" transform="translate(1273.673 2027.23)"/><path class="a" d="M1301.856,901.787H986.568L758.037,580.15,527.389,901.787H212.1L599.334,362.2,229.029-156.23H544.318L758.037,142.132,971.756-156.23h313.171l-370.3,516.313Z" transform="translate(1231.63 2027.23)"/><path class="b" d="M1301.856,901.787H986.568L758.037,580.15,527.389,901.787H212.1L599.334,362.2,229.029-156.23H544.318L758.037,142.132,971.756-156.23h313.171l-370.3,516.313Z" transform="translate(1189.587 2027.23)"/><path class="c" d="M1301.856,901.787H986.568L758.037,580.15,527.389,901.787H212.1L599.334,362.2,229.029-156.23H544.318L758.037,142.132,971.756-156.23h313.171l-370.3,516.313Z" transform="translate(1140.536 2027.23)"/><path class="d" d="M1301.856,901.787H986.568L758.037,580.15,527.389,901.787H212.1L599.334,362.2,229.029-156.23H544.318L758.037,142.132,971.756-156.23h313.171l-370.3,516.313Z" transform="translate(1091.486 2027.23)"/><path class="e" d="M1301.856,901.787H986.568L758.037,580.15,527.389,901.787H212.1L599.334,362.2,229.029-156.23H544.318L758.037,142.132,971.756-156.23h313.171l-370.3,516.313Z" transform="translate(1049.443 2027.23)"/><path class="f" d="M1301.856,901.787H986.568L758.037,580.15,527.389,901.787H212.1L599.334,362.2,229.029-156.23H544.318L758.037,142.132,971.756-156.23h313.171l-370.3,516.313Z" transform="translate(1007.399 2027.23)"/></g></g></svg>