<svg xmlns="http://www.w3.org/2000/svg" width="205.704" height="55.401" viewBox="0 0 205.704 55.401"><defs><style>.a{fill:#1052ef;}.b{fill:#4ac6fc;}.c{fill:#0b2360;}</style></defs><g transform="translate(13986.466 2981.833)"><g transform="translate(-13986.466 -2981.833)"><path class="a" d="M647.913,169.6l7.014-.132c.7-.013,1.407-.041,2.111-.044a6.288,6.288,0,0,1,6.222,5.548,6.877,6.877,0,0,1-.631,3.852c-2.094,4.371-4.136,8.766-6.2,13.152-.025.054-.057.1-.109.2l-.751-1.186c-.887-1.4-1.77-2.8-2.668-4.195a.549.549,0,0,1-.032-.616q1.825-3.8,3.629-7.608c.327-.676.671-1.345.978-2.03a1.053,1.053,0,0,0-.75-1.566c-.543-.061-1.084-.147-1.623-.24-1.723-.3-3.447-.592-5.166-.909a16.99,16.99,0,0,1-2.434-.551.953.953,0,0,1-.715-1.248A12.6,12.6,0,0,1,647.913,169.6Z" transform="translate(-641.085 -156.056)"/><path class="b" d="M574.83-3.382a12.6,12.6,0,0,0-1.124,2.424.953.953,0,0,0,.715,1.248,16.992,16.992,0,0,0,2.434.551c1.719.317,3.443.612,5.166.909.539.093,1.08.179,1.622.24a1.053,1.053,0,0,1,.75,1.566c-.307.685-.651,1.354-.978,2.03-1.705.043-3.41.083-5.115.13-1.395.038-2.79.126-4.184.115a5.987,5.987,0,0,1-3.781-1.422,6.4,6.4,0,0,1-2.285-6,8.232,8.232,0,0,1,.934-2.609q2.852-6.207,5.721-12.406c.044-.094.1-.185.164-.314.6.93,1.183,1.829,1.764,2.73.556.862,1.1,1.731,1.672,2.584a.6.6,0,0,1,.048.68c-1.16,2.445-2.3,4.9-3.452,7.347A2.089,2.089,0,0,0,574.83-3.382Z" transform="translate(-568.002 16.923)"/></g><g transform="translate(-13950.948 -2978.88)"><path class="c" d="M831.147,572.621a18.131,18.131,0,0,1,1.588-1.766,7.277,7.277,0,0,1,7.758-1.192c2.641,1.027,3.712,3.33,3.8,6,.122,3.847.038,7.7.061,11.551,0,.435-.166.49-.531.448a2.625,2.625,0,0,1-2.1-1.935,6.132,6.132,0,0,1-.131-1.3c-.012-2.513,0-5.025-.01-7.538a7.537,7.537,0,0,0-.085-1.305c-.464-2.582-2.043-3.976-4.5-4a4.905,4.905,0,0,0-4.931,4.069,9.185,9.185,0,0,0-.181,1.952q.01,3.728,0,7.456a2.613,2.613,0,0,1-1.756,2.5c-.756.261-.893.167-.893-.632,0-3.25.009-6.5-.009-9.75a9.3,9.3,0,0,0-.184-1.869,4.3,4.3,0,0,0-3.8-3.718,4.861,4.861,0,0,0-5.153,2.948,6.906,6.906,0,0,0-.579,2.862c.006,2.458.01,4.916,0,7.374a2.752,2.752,0,0,1-1.913,2.827c-.5.132-.843.171-.838-.594.034-5.654.025-11.307.007-16.961,0-.49.1-.642.622-.643,2.066-.005,2.065-.027,2.07,2.055,0,.258.022.517.039.872C822.6,567.411,829.323,568.483,831.147,572.621Z" transform="translate(-725.177 -560.596)"/><path class="c" d="M268.1,544.893a9.644,9.644,0,0,1-9.019-5.783,7.094,7.094,0,0,1-.267-.77c-.3-1.135-.172-1.288.992-1.149a3.3,3.3,0,0,1,2.449,1.718,7.14,7.14,0,0,0,9.7,2.3c2.738-1.584,2.9-5.928.1-7.489a15.27,15.27,0,0,0-4.568-1.444,16.035,16.035,0,0,1-4.593-1.392,6.727,6.727,0,0,1-2.426-9.71c3.054-4.584,11.187-4.94,14.626-.637a9.2,9.2,0,0,1,1.473,2.805c.223.648-.034.738-.579.764a3.187,3.187,0,0,1-2.866-1.412,6.785,6.785,0,0,0-8.391-1.86,4.37,4.37,0,0,0-1.147,7.135,5.77,5.77,0,0,0,2.831,1.183,47.4,47.4,0,0,1,4.8,1c2.824.858,4.869,2.546,5.608,5.51a7.39,7.39,0,0,1-5.259,8.707A10.58,10.58,0,0,1,268.1,544.893Z" transform="translate(-258.672 -517.516)"/><path class="c" d="M1186.643,584.547v1.378c0,2.759.009,5.517,0,8.276a2.756,2.756,0,0,1-2.021,2.829c-.54.132-.759.044-.754-.6.03-3.851.015-7.7.015-11.553,0-4.78.009-9.56-.013-14.339,0-.558.113-.739.706-.734,2.043.019,2.043-.007,2.043,2.007q0,.778,0,1.557c.291.1.321-.163.407-.287,3.742-5.363,11.4-4.61,14.273,1.58a10.05,10.05,0,0,1-2.952,12.271,8.184,8.184,0,0,1-11.087-1.6Zm-.027-5.558a5.665,5.665,0,0,0,.2,1.838c.72,2.574,2.231,4.443,4.923,5.024a5.863,5.863,0,0,0,6.3-2.282,8.123,8.123,0,0,0,0-9.137,5.774,5.774,0,0,0-3.447-2.322C1190.383,571.168,1186.619,574.366,1186.615,578.99Z" transform="translate(-1032.059 -560.968)"/><path class="c" d="M1022.319,528.815c0-2.868.017-5.736-.014-8.6-.007-.632.2-.747.756-.6a2.88,2.88,0,0,1,2.1,2.875q.006,6.637,0,13.273a12.738,12.738,0,0,0,.344,3.162,6.05,6.05,0,0,0,4.4,4.615,8.009,8.009,0,0,0,6.35-.516c2.59-1.451,3.318-3.932,3.346-6.67.048-4.615.009-9.231.016-13.847a2.833,2.833,0,0,1,2.093-2.877c.471-.133.738-.152.735.506-.024,5.517.049,11.035-.036,16.55-.056,3.623-1.284,6.734-4.612,8.668-3.124,1.816-9.6,1.964-12.788-1.568a11.061,11.061,0,0,1-2.691-7.683C1022.3,533.676,1022.319,531.246,1022.319,528.815Z" transform="translate(-897.008 -519.222)"/><path class="c" d="M570.24,577.371c-1.366,0-2.732.016-4.1,0a1.9,1.9,0,0,1-2-1.683c-.088-.434-.017-.629.505-.622,2.212.029,4.425.012,6.638.012,1.042,0,1.043,0,.779-1.053a5.43,5.43,0,0,0-4.373-4.437,5.921,5.921,0,0,0-6.136,2.365c-2.263,2.867-2,8.84,2.107,10.9,2.651,1.328,6.522.831,8.089-1.962.185-.33.351-.444.688-.225a4.745,4.745,0,0,0,.585.287c1.445.675,1.445.675.44,1.96-2.945,3.766-9.1,4.141-12.9.786A9.753,9.753,0,0,1,562.48,568a8.381,8.381,0,0,1,12.3,6.145,17.738,17.738,0,0,1,.2,2.689c0,.416-.122.558-.56.548C573.027,577.352,571.633,577.371,570.24,577.371Z" transform="translate(-508.417 -558.871)"/><path class="c" d="M698.488,583.023a6.84,6.84,0,0,1-4.534,3.138c-2.572.4-5,.108-6.705-2.171a5.023,5.023,0,0,1,1.92-7.644c2.154-1.035,4.454-.917,6.744-.909.375,0,.276.241.244.448a2.041,2.041,0,0,1-2.029,1.769,9.214,9.214,0,0,0-3.294.5,2.578,2.578,0,0,0-1.82,2.375,2.831,2.831,0,0,0,1.513,2.783c2.738,1.54,7.4.117,7.941-3.992a28.335,28.335,0,0,0,.023-5.965,3.46,3.46,0,0,0-2.961-3.335c-2.661-.582-4.869.152-5.958,2.341a.433.433,0,0,1-.637.26c-.281-.1-.568-.193-.853-.283-1.459-.462-1.47-.469-.544-1.746,1.936-2.671,4.638-3.509,7.781-3.1,3.891.507,5.876,2.8,5.922,6.824.042,3.685,0,7.371.022,11.057,0,.591-.176.7-.708.575a2.666,2.666,0,0,1-1.921-2.02C698.585,583.669,698.55,583.412,698.488,583.023Z" transform="translate(-616.055 -559.207)"/><path class="c" d="M392.339,552.162c0-1.8-.023-3.6.014-5.406.011-.552-.163-.7-.687-.666-.708.043-1.421-.016-2.13.02-.448.023-.532-.149-.542-.562-.044-1.829-.058-1.829,1.79-1.829,1.555,0,1.555,0,1.555-1.564,0-1.038.036-2.077-.014-3.112-.028-.579.221-.633.671-.543a2.72,2.72,0,0,1,2.073,2.62,14.506,14.506,0,0,1,0,1.883c-.043.553.1.758.7.731,1.145-.052,2.295.01,3.441-.027.506-.016.528.179.431.575a2.377,2.377,0,0,1-1.921,1.786c-.188.029-.381.017-.571.033-.669.055-1.559-.3-1.946.151-.329.384-.115,1.246-.116,1.9q-.009,4.3,0,8.6c0,2.175.937,3.079,3.111,3,.481-.018,1.156-.317,1.391-.017.256.327.073.983.123,1.491.048.485-.09.731-.618.792a10.423,10.423,0,0,1-3.1,0c-2.414-.45-3.592-1.977-3.637-4.686C392.316,555.6,392.339,553.882,392.339,552.162Z" transform="translate(-367.601 -535.029)"/><path class="c" d="M487.345,573.057a6.854,6.854,0,0,1,6.163-3.491c.525,0,.652.167.624.652-.039.68.212,1.489-.078,2.012-.338.61-1.216.137-1.854.22-2.543.332-4.254,2.087-4.663,5.023a68.526,68.526,0,0,0-.159,7.927,2.622,2.622,0,0,1-1.622,2.516c-.9.413-1.09.281-1.09-.681,0-5.537.008-11.075-.013-16.612,0-.579.094-.8.745-.787,1.947.035,1.948,0,1.948,1.943Z" transform="translate(-447.573 -561.026)"/></g><path class="c" d="M-78.486-8.4l-2.928,5.064V0h-1.38V-3.336L-85.722-8.4h1.572L-82.1-4.68l2.04-3.72Zm7.32,7.3A4.194,4.194,0,0,1-74.25.156,4.2,4.2,0,0,1-77.34-1.11,4.2,4.2,0,0,1-78.606-4.2,4.2,4.2,0,0,1-77.34-7.29a4.2,4.2,0,0,1,3.09-1.266A4.2,4.2,0,0,1-71.16-7.29,4.2,4.2,0,0,1-69.894-4.2,4.214,4.214,0,0,1-71.166-1.1Zm-5.208-.936a2.908,2.908,0,0,0,2.124.852,2.878,2.878,0,0,0,2.118-.858A2.921,2.921,0,0,0-71.274-4.2a2.921,2.921,0,0,0-.858-2.154,2.878,2.878,0,0,0-2.118-.858,2.878,2.878,0,0,0-2.118.858A2.921,2.921,0,0,0-77.226-4.2,2.952,2.952,0,0,0-76.374-2.04Zm13.056,1.4A3.314,3.314,0,0,1-65.61.156a3.3,3.3,0,0,1-2.292-.8,2.737,2.737,0,0,1-.888-2.142V-8.4h1.38v5.532a1.667,1.667,0,0,0,.45,1.224,1.819,1.819,0,0,0,1.35.456,1.819,1.819,0,0,0,1.35-.456,1.666,1.666,0,0,0,.45-1.224V-8.4h1.38v5.616A2.756,2.756,0,0,1-63.318-.636Zm7.26.636-1.776-3.06h-1.632V0h-1.38V-8.4h3.36a2.6,2.6,0,0,1,1.914.786A2.6,2.6,0,0,1-54.786-5.7a2.523,2.523,0,0,1-.462,1.47,2.642,2.642,0,0,1-1.206.966L-54.546,0Zm-3.408-7.1V-4.3h1.98A1.237,1.237,0,0,0-56.55-4.7a1.4,1.4,0,0,0,.384-1,1.4,1.4,0,0,0-.384-1,1.237,1.237,0,0,0-.936-.408ZM-47.694.156A3.685,3.685,0,0,1-49.752-.4a2.9,2.9,0,0,1-1.182-1.512l1.188-.7a2.012,2.012,0,0,0,2.088,1.416,1.875,1.875,0,0,0,1.17-.306.967.967,0,0,0,.39-.8.877.877,0,0,0-.42-.786,6.523,6.523,0,0,0-1.488-.594,10.094,10.094,0,0,1-.972-.336,4.515,4.515,0,0,1-.786-.438,1.788,1.788,0,0,1-.618-.7,2.228,2.228,0,0,1-.2-.984,2.175,2.175,0,0,1,.792-1.77,2.9,2.9,0,0,1,1.908-.654,3.161,3.161,0,0,1,1.764.492,3.216,3.216,0,0,1,1.164,1.356l-1.164.672a1.81,1.81,0,0,0-1.764-1.176,1.514,1.514,0,0,0-.96.282.917.917,0,0,0-.36.762.868.868,0,0,0,.366.738,4.871,4.871,0,0,0,1.326.57q.48.156.7.234t.624.246a2.474,2.474,0,0,1,.606.336,4.6,4.6,0,0,1,.438.42,1.436,1.436,0,0,1,.33.576,2.576,2.576,0,0,1,.1.732A2.2,2.2,0,0,1-45.54-.51,3.316,3.316,0,0,1-47.694.156Zm9.564-.792a3.314,3.314,0,0,1-2.292.792,3.3,3.3,0,0,1-2.292-.8A2.737,2.737,0,0,1-43.6-2.784V-8.4h1.38v5.532a1.666,1.666,0,0,0,.45,1.224,1.819,1.819,0,0,0,1.35.456,1.819,1.819,0,0,0,1.35-.456,1.666,1.666,0,0,0,.45-1.224V-8.4h1.38v5.616A2.756,2.756,0,0,1-38.13-.636Zm6.444.792A4.252,4.252,0,0,1-34.83-1.1a4.224,4.224,0,0,1-1.248-3.1A4.224,4.224,0,0,1-34.83-7.3a4.252,4.252,0,0,1,3.144-1.254,4.244,4.244,0,0,1,2.106.54,3.925,3.925,0,0,1,1.506,1.464l-1.2.7a2.476,2.476,0,0,0-.978-.99,2.844,2.844,0,0,0-1.434-.366,2.912,2.912,0,0,0-2.178.852A2.961,2.961,0,0,0-34.7-4.2a2.961,2.961,0,0,0,.834,2.16,2.912,2.912,0,0,0,2.178.852,2.877,2.877,0,0,0,1.44-.366,2.387,2.387,0,0,0,.972-.99l1.2.684A3.881,3.881,0,0,1-29.568-.39,4.23,4.23,0,0,1-31.686.156Zm8.664,0A4.252,4.252,0,0,1-26.166-1.1a4.224,4.224,0,0,1-1.248-3.1,4.224,4.224,0,0,1,1.248-3.1,4.252,4.252,0,0,1,3.144-1.254,4.244,4.244,0,0,1,2.106.54A3.925,3.925,0,0,1-19.41-6.552l-1.2.7a2.476,2.476,0,0,0-.978-.99,2.844,2.844,0,0,0-1.434-.366A2.912,2.912,0,0,0-25.2-6.36a2.961,2.961,0,0,0-.834,2.16A2.961,2.961,0,0,0-25.2-2.04a2.912,2.912,0,0,0,2.178.852,2.877,2.877,0,0,0,1.44-.366,2.387,2.387,0,0,0,.972-.99l1.2.684A3.881,3.881,0,0,1-20.9-.39,4.23,4.23,0,0,1-23.022.156ZM-16.89-1.32h3.72V0h-5.1V-8.4h5.04v1.32h-3.66V-4.9h3.36v1.308h-3.36ZM-9.114.156A3.685,3.685,0,0,1-11.172-.4a2.9,2.9,0,0,1-1.182-1.512l1.188-.7A2.012,2.012,0,0,0-9.078-1.188a1.875,1.875,0,0,0,1.17-.306.967.967,0,0,0,.39-.8.877.877,0,0,0-.42-.786,6.523,6.523,0,0,0-1.488-.594,10.094,10.094,0,0,1-.972-.336,4.515,4.515,0,0,1-.786-.438,1.788,1.788,0,0,1-.618-.7,2.228,2.228,0,0,1-.2-.984,2.175,2.175,0,0,1,.792-1.77,2.9,2.9,0,0,1,1.908-.654,3.161,3.161,0,0,1,1.764.492A3.216,3.216,0,0,1-6.378-6.708l-1.164.672A1.81,1.81,0,0,0-9.306-7.212a1.514,1.514,0,0,0-.96.282.917.917,0,0,0-.36.762.868.868,0,0,0,.366.738,4.871,4.871,0,0,0,1.326.57q.48.156.7.234t.624.246A2.474,2.474,0,0,1-7-4.044a4.6,4.6,0,0,1,.438.42,1.436,1.436,0,0,1,.33.576,2.576,2.576,0,0,1,.1.732A2.2,2.2,0,0,1-6.96-.51,3.316,3.316,0,0,1-9.114.156Zm6.7,0A3.685,3.685,0,0,1-4.476-.4,2.9,2.9,0,0,1-5.658-1.908l1.188-.7A2.012,2.012,0,0,0-2.382-1.188a1.875,1.875,0,0,0,1.17-.306.967.967,0,0,0,.39-.8.877.877,0,0,0-.42-.786A6.523,6.523,0,0,0-2.73-3.672,10.094,10.094,0,0,1-3.7-4.008a4.515,4.515,0,0,1-.786-.438,1.788,1.788,0,0,1-.618-.7,2.228,2.228,0,0,1-.2-.984A2.175,2.175,0,0,1-4.518-7.9,2.9,2.9,0,0,1-2.61-8.556a3.161,3.161,0,0,1,1.764.492A3.216,3.216,0,0,1,.318-6.708l-1.164.672A1.81,1.81,0,0,0-2.61-7.212a1.514,1.514,0,0,0-.96.282.917.917,0,0,0-.36.762.868.868,0,0,0,.366.738,4.871,4.871,0,0,0,1.326.57q.48.156.7.234t.624.246a2.474,2.474,0,0,1,.606.336,4.6,4.6,0,0,1,.438.42,1.436,1.436,0,0,1,.33.576,2.576,2.576,0,0,1,.1.732A2.2,2.2,0,0,1-.264-.51,3.316,3.316,0,0,1-2.418.156ZM4.758,2.4V-8.64h1.3V2.4Zm13-3.5A4.194,4.194,0,0,1,14.67.156,4.2,4.2,0,0,1,11.58-1.11,4.2,4.2,0,0,1,10.314-4.2,4.2,4.2,0,0,1,11.58-7.29a4.2,4.2,0,0,1,3.09-1.266A4.2,4.2,0,0,1,17.76-7.29,4.2,4.2,0,0,1,19.026-4.2,4.214,4.214,0,0,1,17.754-1.1ZM12.546-2.04a2.908,2.908,0,0,0,2.124.852,2.878,2.878,0,0,0,2.118-.858A2.921,2.921,0,0,0,17.646-4.2a2.921,2.921,0,0,0-.858-2.154,2.878,2.878,0,0,0-2.118-.858,2.878,2.878,0,0,0-2.118.858A2.921,2.921,0,0,0,11.694-4.2,2.952,2.952,0,0,0,12.546-2.04ZM25.6-.636A3.314,3.314,0,0,1,23.31.156a3.3,3.3,0,0,1-2.292-.8,2.737,2.737,0,0,1-.888-2.142V-8.4h1.38v5.532a1.666,1.666,0,0,0,.45,1.224,1.819,1.819,0,0,0,1.35.456,1.819,1.819,0,0,0,1.35-.456,1.666,1.666,0,0,0,.45-1.224V-8.4h1.38v5.616A2.756,2.756,0,0,1,25.6-.636ZM32.862,0,31.086-3.06H29.454V0h-1.38V-8.4h3.36a2.6,2.6,0,0,1,1.914.786A2.6,2.6,0,0,1,34.134-5.7a2.523,2.523,0,0,1-.462,1.47,2.642,2.642,0,0,1-1.206.966L34.374,0ZM29.454-7.1V-4.3h1.98A1.237,1.237,0,0,0,32.37-4.7a1.4,1.4,0,0,0,.384-1,1.4,1.4,0,0,0-.384-1,1.237,1.237,0,0,0-.936-.408ZM41.526-8.4a2.706,2.706,0,0,1,1.986.792,2.661,2.661,0,0,1,.8,1.968,2.667,2.667,0,0,1-.8,1.962,2.7,2.7,0,0,1-1.986.8H39.81V0H38.43V-8.4Zm0,4.224a1.334,1.334,0,0,0,1.008-.414,1.458,1.458,0,0,0,.4-1.05,1.458,1.458,0,0,0-.4-1.05A1.334,1.334,0,0,0,41.526-7.1H39.81v2.928ZM50.142,0l-.588-1.692H45.978L45.39,0h-1.5l3.048-8.4h1.656L51.63,0ZM46.434-2.988H49.1L47.766-6.78ZM55.11.156A3.685,3.685,0,0,1,53.052-.4,2.9,2.9,0,0,1,51.87-1.908l1.188-.7a2.012,2.012,0,0,0,2.088,1.416,1.875,1.875,0,0,0,1.17-.306.967.967,0,0,0,.39-.8.877.877,0,0,0-.42-.786A6.523,6.523,0,0,0,54.8-3.672a10.094,10.094,0,0,1-.972-.336,4.515,4.515,0,0,1-.786-.438,1.788,1.788,0,0,1-.618-.7,2.228,2.228,0,0,1-.2-.984A2.175,2.175,0,0,1,53.01-7.9a2.9,2.9,0,0,1,1.908-.654,3.161,3.161,0,0,1,1.764.492,3.216,3.216,0,0,1,1.164,1.356l-1.164.672a1.81,1.81,0,0,0-1.764-1.176,1.514,1.514,0,0,0-.96.282.917.917,0,0,0-.36.762.868.868,0,0,0,.366.738,4.871,4.871,0,0,0,1.326.57q.48.156.7.234t.624.246a2.474,2.474,0,0,1,.606.336,4.6,4.6,0,0,1,.438.42,1.436,1.436,0,0,1,.33.576,2.576,2.576,0,0,1,.1.732A2.2,2.2,0,0,1,57.264-.51,3.316,3.316,0,0,1,55.11.156Zm6.7,0A3.685,3.685,0,0,1,59.748-.4a2.9,2.9,0,0,1-1.182-1.512l1.188-.7a2.012,2.012,0,0,0,2.088,1.416,1.875,1.875,0,0,0,1.17-.306.967.967,0,0,0,.39-.8.877.877,0,0,0-.42-.786,6.523,6.523,0,0,0-1.488-.594,10.094,10.094,0,0,1-.972-.336,4.515,4.515,0,0,1-.786-.438,1.788,1.788,0,0,1-.618-.7,2.228,2.228,0,0,1-.2-.984,2.175,2.175,0,0,1,.792-1.77,2.9,2.9,0,0,1,1.908-.654,3.161,3.161,0,0,1,1.764.492,3.216,3.216,0,0,1,1.164,1.356l-1.164.672a1.81,1.81,0,0,0-1.764-1.176,1.514,1.514,0,0,0-.96.282.917.917,0,0,0-.36.762.868.868,0,0,0,.366.738,4.871,4.871,0,0,0,1.326.57q.48.156.7.234t.624.246a2.474,2.474,0,0,1,.606.336,4.6,4.6,0,0,1,.438.42,1.436,1.436,0,0,1,.33.576,2.576,2.576,0,0,1,.1.732A2.2,2.2,0,0,1,63.96-.51,3.316,3.316,0,0,1,61.806.156ZM65.91-8.4h1.38V0H65.91ZM75.99-1.1A4.194,4.194,0,0,1,72.906.156a4.2,4.2,0,0,1-3.09-1.266A4.2,4.2,0,0,1,68.55-4.2a4.2,4.2,0,0,1,1.266-3.09,4.2,4.2,0,0,1,3.09-1.266A4.2,4.2,0,0,1,76-7.29,4.2,4.2,0,0,1,77.262-4.2,4.214,4.214,0,0,1,75.99-1.1ZM70.782-2.04a2.908,2.908,0,0,0,2.124.852,2.878,2.878,0,0,0,2.118-.858A2.921,2.921,0,0,0,75.882-4.2a2.921,2.921,0,0,0-.858-2.154,2.878,2.878,0,0,0-2.118-.858,2.878,2.878,0,0,0-2.118.858A2.921,2.921,0,0,0,69.93-4.2,2.952,2.952,0,0,0,70.782-2.04ZM83.562-8.4h1.38V0h-1.08L79.9-5.7V0h-1.38V-8.4H79.6l3.96,5.7Z" transform="translate(-13866.466 -2928.832)"/></g></svg>