<svg xmlns="http://www.w3.org/2000/svg" xmlns:xlink="http://www.w3.org/1999/xlink" width="1130" height="671" viewBox="0 0 1130 671"><defs><style>.a{fill:#fff;}.b{clip-path:url(#a);}.c{opacity:0.238;}.d,.e,.f,.g,.h,.i{fill:none;stroke:#fff;}.e{opacity:0.8;}.f{opacity:0.7;}.g{opacity:0.6;}.h{opacity:0.5;}.i{opacity:0.4;}</style><clipPath id="a"><rect class="a" width="1130" height="671" transform="translate(712 5899)"/></clipPath></defs><g class="b" transform="translate(-712 -5899)"><g class="c" transform="translate(-591.092 3678.574)"><g transform="translate(1073.804 1684.731)"><path class="d" d="M2035.214,1613.786H1507.75L1125.428,1075.7,739.564,1613.786H212.1L859.925,711.08,240.421-156.23H767.886l357.542,499.146L1482.97-156.23h523.922l-619.5,863.77Z" transform="translate(233.363 156.23)"/><path class="d" d="M2035.214,1613.786H1507.75L1125.428,1075.7,739.564,1613.786H212.1L859.925,711.08,240.421-156.23H767.886l357.542,499.146L1482.97-156.23h523.922l-619.5,863.77Z" transform="translate(163.027 156.23)"/><path class="e" d="M2035.214,1613.786H1507.75L1125.428,1075.7,739.564,1613.786H212.1L859.925,711.08,240.421-156.23H767.886l357.542,499.146L1482.97-156.23h523.922l-619.5,863.77Z" transform="translate(92.69 156.23)"/><path class="f" d="M2035.214,1613.786H1507.75L1125.428,1075.7,739.564,1613.786H212.1L859.925,711.08,240.421-156.23H767.886l357.542,499.146L1482.97-156.23h523.922l-619.5,863.77Z" transform="translate(10.631 156.23)"/><path class="g" d="M2035.214,1613.786H1507.75L1125.428,1075.7,739.564,1613.786H212.1L859.925,711.08,240.421-156.23H767.886l357.542,499.146L1482.97-156.23h523.922l-619.5,863.77Z" transform="translate(-71.428 156.23)"/><path class="h" d="M2035.214,1613.786H1507.75L1125.428,1075.7,739.564,1613.786H212.1L859.925,711.08,240.421-156.23H767.886l357.542,499.146L1482.97-156.23h523.922l-619.5,863.77Z" transform="translate(-141.764 156.23)"/><path class="i" d="M2035.214,1613.786H1507.75L1125.428,1075.7,739.564,1613.786H212.1L859.925,711.08,240.421-156.23H767.886l357.542,499.146L1482.97-156.23h523.922l-619.5,863.77Z" transform="translate(-212.101 156.23)"/></g></g></g></svg>