<svg xmlns="http://www.w3.org/2000/svg"
  xmlns:xlink="http://www.w3.org/1999/xlink" width="666.759" height="997.56" viewBox="0 0 666.759 997.56">
  <defs>
    <style>.a{opacity:0.35;}.b{fill:url(#a);}</style>
    <linearGradient id="a" x1="0.895" y1="1" x2="1.575" y2="3.511" gradientUnits="objectBoundingBox">
      <stop offset="0"/>
      <stop offset="1" stop-color="#545454"/>
    </linearGradient>
  </defs>
  <g class="a" transform="translate(-568.002 16.923)">
    <path class="b" d="M680,174.371q98.832-1.85,197.665-3.709c19.831-.378,39.663-1.158,59.5-1.239,88.87-.362,165.336,67.956,175.342,156.363,4.285,37.872-1,73.508-17.778,108.542-59,123.181-116.569,247.043-174.7,370.642-.712,1.512-1.615,2.933-3.074,5.559-7.311-11.542-14.236-22.481-21.17-33.415-25.008-39.438-49.877-78.966-75.174-118.216-3.972-6.161-4.035-10.818-.894-17.353q51.429-107.057,102.26-214.4c9.227-19.053,18.916-37.9,27.561-57.216,9.326-20.838-1.376-41.9-21.145-44.134-15.3-1.728-30.544-4.148-45.727-6.765-48.557-8.374-97.128-16.692-145.581-25.631-23.053-4.251-46.325-7.928-68.606-15.54-17.153-5.86-25.473-19.027-20.157-35.181C656.183,218.792,667.248,196.127,680,174.371Z" transform="translate(120.838 170.108)"/>
    <path class="b" d="M760.414,364.693c-12.755,21.756-23.82,44.421-31.678,68.307-5.316,16.155,3,29.322,20.157,35.181,22.281,7.612,45.553,11.289,68.606,15.54,48.454,8.938,97.025,17.256,145.581,25.631,15.182,2.618,30.423,5.037,45.727,6.765,19.769,2.234,30.472,23.3,21.145,44.134-8.645,19.316-18.333,38.163-27.561,57.216-48.054,1.213-96.109,2.349-144.16,3.665-39.307,1.075-78.616,3.549-117.905,3.232-39.956-.323-75.75-15-106.567-40.075C579.908,540.475,562.68,482.4,569.374,415.069c2.678-26.951,15.425-49.842,26.31-73.53Q676.051,166.624,756.9-8.07c1.229-2.66,2.713-5.2,4.629-8.853,16.929,26.2,33.332,51.556,49.7,76.934,15.671,24.295,31.066,48.773,47.116,72.817,4.443,6.658,4.837,11.786,1.34,19.156-32.7,68.891-64.938,138-97.279,207.058A58.819,58.819,0,0,0,760.414,364.693Z" transform="translate(0 0)"/>
  </g>
</svg>