<svg width="666.759" height="997.56" xmlns="http://www.w3.org/2000/svg">

 <g>
  <title>Layer 1</title>
  <g stroke-width="0" id="svg_1" opacity="0.35" class="a">
   <path stroke="#000000" id="svg_2" fill="#ffffff" d="m232.83598,361.402q98.832,-1.85 197.665,-3.709c19.831,-0.378 39.663,-1.158 59.5,-1.239c88.87,-0.362 165.336,67.956 175.342,156.363c4.285,37.872 -1,73.508 -17.778,108.542c-59,123.181 -116.569,247.043 -174.7,370.642c-0.712,1.512 -1.615,2.933 -3.074,5.559c-7.311,-11.542 -14.236,-22.481 -21.17,-33.415c-25.008,-39.438 -49.877,-78.966 -75.174,-118.216c-3.972,-6.161 -4.035,-10.818 -0.894,-17.353q51.429,-107.057 102.26,-214.4c9.227,-19.053 18.916,-37.9 27.561,-57.216c9.326,-20.838 -1.376,-41.9 -21.145,-44.134c-15.3,-1.728 -30.544,-4.148 -45.727,-6.765c-48.557,-8.374 -97.128,-16.692 -145.581,-25.631c-23.053,-4.251 -46.325,-7.928 -68.606,-15.54c-17.153,-5.86 -25.473,-19.027 -20.157,-35.181c7.861,-23.886 18.926,-46.551 31.678,-68.307z" class="b"/>
   <path stroke="#000000" id="svg_3" fill="#ffffff" d="m192.41199,381.616c-12.755,21.756 -23.82,44.421 -31.678,68.307c-5.316,16.155 3,29.322 20.157,35.181c22.281,7.612 45.553,11.289 68.606,15.54c48.454,8.938 97.025,17.256 145.581,25.631c15.182,2.618 30.423,5.037 45.727,6.765c19.769,2.234 30.472,23.3 21.145,44.134c-8.645,19.316 -18.333,38.163 -27.561,57.216c-48.054,1.213 -96.109,2.349 -144.16,3.665c-39.307,1.075 -78.616,3.549 -117.905,3.232c-39.956,-0.323 -75.75,-15 -106.567,-40.075c-53.851,-43.814 -71.079,-101.889 -64.385,-169.22c2.678,-26.951 15.425,-49.842 26.31,-73.53q80.367,-174.915 161.216,-349.609c1.229,-2.66 2.713,-5.2 4.629,-8.853c16.929,26.2 33.332,51.556 49.7,76.934c15.671,24.295 31.066,48.773 47.116,72.817c4.443,6.658 4.837,11.786 1.34,19.156c-32.7,68.891 -64.938,138 -97.279,207.058a58.819,58.819 0 0 0 -1.992,5.651z" class="b"/>
  </g>
 </g>
</svg>